<svg width="239" height="24" viewBox="0 0 239 24" fill="none" xmlns="http://www.w3.org/2000/svg">
<path d="M14.0694 18.35H4.94941L3.26941 23H0.389414L7.94941 2.21H11.0994L18.6294 23H15.7494L14.0694 18.35ZM13.2894 16.13L9.50941 5.57L5.72941 16.13H13.2894ZM20.9043 14.72C20.9043 13.04 21.2443 11.57 21.9243 10.31C22.6043 9.03 23.5343 8.04 24.7143 7.34C25.9143 6.64 27.2543 6.29 28.7343 6.29C30.0143 6.29 31.2043 6.59 32.3043 7.19C33.4043 7.77 34.2443 8.54 34.8243 9.5V0.8H37.5843V23H34.8243V19.91C34.2843 20.89 33.4843 21.7 32.4243 22.34C31.3643 22.96 30.1243 23.27 28.7043 23.27C27.2443 23.27 25.9143 22.91 24.7143 22.19C23.5343 21.47 22.6043 20.46 21.9243 19.16C21.2443 17.86 20.9043 16.38 20.9043 14.72ZM34.8243 14.75C34.8243 13.51 34.5743 12.43 34.0743 11.51C33.5743 10.59 32.8943 9.89 32.0343 9.41C31.1943 8.91 30.2643 8.66 29.2443 8.66C28.2243 8.66 27.2943 8.9 26.4543 9.38C25.6143 9.86 24.9443 10.56 24.4443 11.48C23.9443 12.4 23.6943 13.48 23.6943 14.72C23.6943 15.98 23.9443 17.08 24.4443 18.02C24.9443 18.94 25.6143 19.65 26.4543 20.15C27.2943 20.63 28.2243 20.87 29.2443 20.87C30.2643 20.87 31.1943 20.63 32.0343 20.15C32.8943 19.65 33.5743 18.94 34.0743 18.02C34.5743 17.08 34.8243 15.99 34.8243 14.75ZM41.1777 14.72C41.1777 13.04 41.5177 11.57 42.1977 10.31C42.8777 9.03 43.8077 8.04 44.9877 7.34C46.1877 6.64 47.5277 6.29 49.0077 6.29C50.2877 6.29 51.4777 6.59 52.5777 7.19C53.6777 7.77 54.5177 8.54 55.0977 9.5V0.8H57.8577V23H55.0977V19.91C54.5577 20.89 53.7577 21.7 52.6977 22.34C51.6377 22.96 50.3977 23.27 48.9777 23.27C47.5177 23.27 46.1877 22.91 44.9877 22.19C43.8077 21.47 42.8777 20.46 42.1977 19.16C41.5177 17.86 41.1777 16.38 41.1777 14.72ZM55.0977 14.75C55.0977 13.51 54.8477 12.43 54.3477 11.51C53.8477 10.59 53.1677 9.89 52.3077 9.41C51.4677 8.91 50.5377 8.66 49.5177 8.66C48.4977 8.66 47.5677 8.9 46.7277 9.38C45.8877 9.86 45.2177 10.56 44.7177 11.48C44.2177 12.4 43.9677 13.48 43.9677 14.72C43.9677 15.98 44.2177 17.08 44.7177 18.02C45.2177 18.94 45.8877 19.65 46.7277 20.15C47.5677 20.63 48.4977 20.87 49.5177 20.87C50.5377 20.87 51.4677 20.63 52.3077 20.15C53.1677 19.65 53.8477 18.94 54.3477 18.02C54.8477 17.08 55.0977 15.99 55.0977 14.75ZM73.7992 8.81V18.5C73.7992 19.3 73.9692 19.87 74.3092 20.21C74.6492 20.53 75.2392 20.69 76.0792 20.69H78.0892V23H75.6292C74.1092 23 72.9692 22.65 72.2092 21.95C71.4492 21.25 71.0692 20.1 71.0692 18.5V8.81H68.9392V6.56H71.0692V2.42H73.7992V6.56H78.0892V8.81H73.7992ZM84.1269 9.23C84.6069 8.29 85.2869 7.56 86.1669 7.04C87.0669 6.52 88.1569 6.26 89.4369 6.26V9.08H88.7169C85.6569 9.08 84.1269 10.74 84.1269 14.06V23H81.3969V6.56H84.1269V9.23ZM91.5683 14.72C91.5683 13.04 91.9083 11.57 92.5883 10.31C93.2683 9.03 94.1983 8.04 95.3783 7.34C96.5783 6.64 97.9083 6.29 99.3683 6.29C100.808 6.29 102.058 6.6 103.118 7.22C104.178 7.84 104.968 8.62 105.488 9.56V6.56H108.248V23H105.488V19.94C104.948 20.9 104.138 21.7 103.058 22.34C101.998 22.96 100.758 23.27 99.3383 23.27C97.8783 23.27 96.5583 22.91 95.3783 22.19C94.1983 21.47 93.2683 20.46 92.5883 19.16C91.9083 17.86 91.5683 16.38 91.5683 14.72ZM105.488 14.75C105.488 13.51 105.238 12.43 104.738 11.51C104.238 10.59 103.558 9.89 102.698 9.41C101.858 8.91 100.928 8.66 99.9083 8.66C98.8883 8.66 97.9583 8.9 97.1183 9.38C96.2783 9.86 95.6083 10.56 95.1083 11.48C94.6083 12.4 94.3583 13.48 94.3583 14.72C94.3583 15.98 94.6083 17.08 95.1083 18.02C95.6083 18.94 96.2783 19.65 97.1183 20.15C97.9583 20.63 98.8883 20.87 99.9083 20.87C100.928 20.87 101.858 20.63 102.698 20.15C103.558 19.65 104.238 18.94 104.738 18.02C105.238 17.08 105.488 15.99 105.488 14.75ZM120.872 6.26C122.872 6.26 124.492 6.87 125.732 8.09C126.972 9.29 127.592 11.03 127.592 13.31V23H124.892V13.7C124.892 12.06 124.482 10.81 123.662 9.95C122.842 9.07 121.722 8.63 120.302 8.63C118.862 8.63 117.712 9.08 116.852 9.98C116.012 10.88 115.592 12.19 115.592 13.91V23H112.862V6.56H115.592V8.9C116.132 8.06 116.862 7.41 117.782 6.95C118.722 6.49 119.752 6.26 120.872 6.26ZM137.871 23.27C136.611 23.27 135.481 23.06 134.481 22.64C133.481 22.2 132.691 21.6 132.111 20.84C131.531 20.06 131.211 19.17 131.151 18.17H133.971C134.051 18.99 134.431 19.66 135.111 20.18C135.811 20.7 136.721 20.96 137.841 20.96C138.881 20.96 139.701 20.73 140.301 20.27C140.901 19.81 141.201 19.23 141.201 18.53C141.201 17.81 140.881 17.28 140.241 16.94C139.601 16.58 138.611 16.23 137.271 15.89C136.051 15.57 135.051 15.25 134.271 14.93C133.511 14.59 132.851 14.1 132.291 13.46C131.751 12.8 131.481 11.94 131.481 10.88C131.481 10.04 131.731 9.27 132.231 8.57C132.731 7.87 133.441 7.32 134.361 6.92C135.281 6.5 136.331 6.29 137.511 6.29C139.331 6.29 140.801 6.75 141.921 7.67C143.041 8.59 143.641 9.85 143.721 11.45H140.991C140.931 10.59 140.581 9.9 139.941 9.38C139.321 8.86 138.481 8.6 137.421 8.6C136.441 8.6 135.661 8.81 135.081 9.23C134.501 9.65 134.211 10.2 134.211 10.88C134.211 11.42 134.381 11.87 134.721 12.23C135.081 12.57 135.521 12.85 136.041 13.07C136.581 13.27 137.321 13.5 138.261 13.76C139.441 14.08 140.401 14.4 141.141 14.72C141.881 15.02 142.511 15.48 143.031 16.1C143.571 16.72 143.851 17.53 143.871 18.53C143.871 19.43 143.621 20.24 143.121 20.96C142.621 21.68 141.911 22.25 140.991 22.67C140.091 23.07 139.051 23.27 137.871 23.27ZM146.705 14.72C146.705 13.04 147.045 11.57 147.725 10.31C148.405 9.03 149.335 8.04 150.515 7.34C151.715 6.64 153.045 6.29 154.505 6.29C155.945 6.29 157.195 6.6 158.255 7.22C159.315 7.84 160.105 8.62 160.625 9.56V6.56H163.385V23H160.625V19.94C160.085 20.9 159.275 21.7 158.195 22.34C157.135 22.96 155.895 23.27 154.475 23.27C153.015 23.27 151.695 22.91 150.515 22.19C149.335 21.47 148.405 20.46 147.725 19.16C147.045 17.86 146.705 16.38 146.705 14.72ZM160.625 14.75C160.625 13.51 160.375 12.43 159.875 11.51C159.375 10.59 158.695 9.89 157.835 9.41C156.995 8.91 156.065 8.66 155.045 8.66C154.025 8.66 153.095 8.9 152.255 9.38C151.415 9.86 150.745 10.56 150.245 11.48C149.745 12.4 149.495 13.48 149.495 14.72C149.495 15.98 149.745 17.08 150.245 18.02C150.745 18.94 151.415 19.65 152.255 20.15C153.095 20.63 154.025 20.87 155.045 20.87C156.065 20.87 156.995 20.63 157.835 20.15C158.695 19.65 159.375 18.94 159.875 18.02C160.375 17.08 160.625 15.99 160.625 14.75ZM166.978 14.75C166.978 13.05 167.318 11.57 167.998 10.31C168.678 9.03 169.618 8.04 170.818 7.34C172.038 6.64 173.428 6.29 174.988 6.29C177.008 6.29 178.668 6.78 179.968 7.76C181.288 8.74 182.158 10.1 182.578 11.84H179.638C179.358 10.84 178.808 10.05 177.988 9.47C177.188 8.89 176.188 8.6 174.988 8.6C173.428 8.6 172.168 9.14 171.208 10.22C170.248 11.28 169.768 12.79 169.768 14.75C169.768 16.73 170.248 18.26 171.208 19.34C172.168 20.42 173.428 20.96 174.988 20.96C176.188 20.96 177.188 20.68 177.988 20.12C178.788 19.56 179.338 18.76 179.638 17.72H182.578C182.138 19.4 181.258 20.75 179.938 21.77C178.618 22.77 176.968 23.27 174.988 23.27C173.428 23.27 172.038 22.92 170.818 22.22C169.618 21.52 168.678 20.53 167.998 19.25C167.318 17.97 166.978 16.47 166.978 14.75ZM189.551 8.81V18.5C189.551 19.3 189.721 19.87 190.061 20.21C190.401 20.53 190.991 20.69 191.831 20.69H193.841V23H191.381C189.861 23 188.721 22.65 187.961 21.95C187.201 21.25 186.821 20.1 186.821 18.5V8.81H184.691V6.56H186.821V2.42H189.551V6.56H193.841V8.81H189.551ZM198.559 3.89C198.039 3.89 197.599 3.71 197.239 3.35C196.879 2.99 196.699 2.55 196.699 2.03C196.699 1.51 196.879 1.07 197.239 0.709999C197.599 0.349999 198.039 0.169999 198.559 0.169999C199.059 0.169999 199.479 0.349999 199.819 0.709999C200.179 1.07 200.359 1.51 200.359 2.03C200.359 2.55 200.179 2.99 199.819 3.35C199.479 3.71 199.059 3.89 198.559 3.89ZM199.879 6.56V23H197.149V6.56H199.879ZM211.702 23.27C210.162 23.27 208.762 22.92 207.502 22.22C206.262 21.52 205.282 20.53 204.562 19.25C203.862 17.95 203.512 16.45 203.512 14.75C203.512 13.07 203.872 11.59 204.592 10.31C205.332 9.01 206.332 8.02 207.592 7.34C208.852 6.64 210.262 6.29 211.822 6.29C213.382 6.29 214.792 6.64 216.052 7.34C217.312 8.02 218.302 9 219.022 10.28C219.762 11.56 220.132 13.05 220.132 14.75C220.132 16.45 219.752 17.95 218.992 19.25C218.252 20.53 217.242 21.52 215.962 22.22C214.682 22.92 213.262 23.27 211.702 23.27ZM211.702 20.87C212.682 20.87 213.602 20.64 214.462 20.18C215.322 19.72 216.012 19.03 216.532 18.11C217.072 17.19 217.342 16.07 217.342 14.75C217.342 13.43 217.082 12.31 216.562 11.39C216.042 10.47 215.362 9.79 214.522 9.35C213.682 8.89 212.772 8.66 211.792 8.66C210.792 8.66 209.872 8.89 209.032 9.35C208.212 9.79 207.552 10.47 207.052 11.39C206.552 12.31 206.302 13.43 206.302 14.75C206.302 16.09 206.542 17.22 207.022 18.14C207.522 19.06 208.182 19.75 209.002 20.21C209.822 20.65 210.722 20.87 211.702 20.87ZM231.731 6.26C233.731 6.26 235.351 6.87 236.591 8.09C237.831 9.29 238.451 11.03 238.451 13.31V23H235.751V13.7C235.751 12.06 235.341 10.81 234.521 9.95C233.701 9.07 232.581 8.63 231.161 8.63C229.721 8.63 228.571 9.08 227.711 9.98C226.871 10.88 226.451 12.19 226.451 13.91V23H223.721V6.56H226.451V8.9C226.991 8.06 227.721 7.41 228.641 6.95C229.581 6.49 230.611 6.26 231.731 6.26Z" fill="#FBFBFB"/>
</svg>
