<svg aria-hidden="true" style="position: absolute; width: 0; height: 0; overflow: hidden;" version="1.1"
    xmlns="http://www.w3.org/2000/svg" xmlns:xlink="http://www.w3.org/1999/xlink">
    <defs>
        <symbol id="home" viewBox="0 0 32 32">
            <path fill="#fbfbfb" style="fill: var(--color1, #fbfbfb)"
                d="M10.105 5.895h11.789c0.93 0 1.684 0.754 1.684 1.684v11.789c0 0.93-0.754 1.684-1.684 1.684h-11.789c-0.93 0-1.684-0.754-1.684-1.684v-11.789c0-0.93 0.754-1.684 1.684-1.684z">
            </path>
            <path fill="#734aef" style="fill: var(--color2, #734aef)"
                d="M10.105 5.895c-0.93 0-1.684 0.754-1.684 1.684v11.789c0 0.93 0.754 1.684 1.684 1.684h11.789c0.93 0 1.684-0.754 1.684-1.684v-11.789c0-0.93-0.754-1.684-1.684-1.684h-11.789zM14.989 14.415v3.269h-2.526v-4.359h-1.516l5.053-4.904 5.053 4.904h-1.516v4.359h-2.526v-3.269h-2.021z">
            </path>
        </symbol>
        <symbol id="line" viewBox="0 0 11200 32">
            <path stroke-linejoin="miter" stroke-linecap="butt" stroke-miterlimit="4" stroke-width="16"
                d="M0 16l11200-0.001"></path>
        </symbol>
        <symbol id="icon-logo_MoneyGuard" viewBox="0 0 35 32">
            <path fill="#ffb627" style="fill: var(--color1, #ffb627)"
                d="M23.748 4.297c-2.314-0.553-4.628-1.66-6.364-3.32-1.736 1.66-4.050 2.767-6.364 3.32 0.579 4.981 2.314 8.301 6.364 11.068 4.050-2.767 6.364-6.087 6.364-11.068z">
            </path>
            <path fill="#fbfbfb" style="fill: var(--color2, #fbfbfb)"
                d="M21.433 24.903l-16.2-18.262v8.854l12.728 13.835 3.471-4.427z"></path>
            <path fill="#fbfbfb" style="fill: var(--color2, #fbfbfb)"
                d="M23.169 23.243l6.943-7.748v-8.301l-10.993 12.175 4.050 3.874z"></path>
            <path fill="#fbfbfb" style="fill: var(--color2, #fbfbfb)"
                d="M23.748 26.010v4.981l6.364-7.194v-4.981l-6.364 7.194z"></path>
            <path fill="#fbfbfb" style="fill: var(--color2, #fbfbfb)"
                d="M11.598 26.010l-6.364-7.194v4.981l6.364 7.194v-4.981z"></path>
        </symbol>
    </defs>
</svg>