<svg aria-hidden="true" style="position: absolute; width: 0; height: 0; overflow: hidden;" version="1.1"
    xmlns="http://www.w3.org/2000/svg" xmlns:xlink="http://www.w3.org/1999/xlink">
    <defs>
        <symbol id="home" viewBox="0 0 32 32">
            <path fill="#fbfbfb" style="fill: var(--color1, #fbfbfb)"
                d="M10.105 5.895h11.789c0.93 0 1.684 0.754 1.684 1.684v11.789c0 0.93-0.754 1.684-1.684 1.684h-11.789c-0.93 0-1.684-0.754-1.684-1.684v-11.789c0-0.93 0.754-1.684 1.684-1.684z">
            </path>
            <path fill="#734aef" style="fill: var(--color2, #734aef)"
                d="M10.105 5.895c-0.93 0-1.684 0.754-1.684 1.684v11.789c0 0.93 0.754 1.684 1.684 1.684h11.789c0.93 0 1.684-0.754 1.684-1.684v-11.789c0-0.93-0.754-1.684-1.684-1.684h-11.789zM14.989 14.415v3.269h-2.526v-4.359h-1.516l5.053-4.904 5.053 4.904h-1.516v4.359h-2.526v-3.269h-2.021z">
            </path>
        </symbol>
        <symbol id="line" viewBox="0 0 11200 32">
            <path stroke-linejoin="miter" stroke-linecap="butt" stroke-miterlimit="4" stroke-width="16"
                d="M0 16l11200-0.001"></path>
        </symbol>
        <symbol id="icon-logo_MoneyGuard" viewBox="0 0 35 32">
            <path fill="#ffb627" style="fill: var(--color1, #ffb627)"
                d="M23.748 4.297c-2.314-0.553-4.628-1.66-6.364-3.32-1.736 1.66-4.050 2.767-6.364 3.32 0.579 4.981 2.314 8.301 6.364 11.068 4.050-2.767 6.364-6.087 6.364-11.068z">
            </path>
            <path fill="#fbfbfb" style="fill: var(--color2, #fbfbfb)"
                d="M21.433 24.903l-16.2-18.262v8.854l12.728 13.835 3.471-4.427z"></path>
            <path fill="#fbfbfb" style="fill: var(--color2, #fbfbfb)"
                d="M23.169 23.243l6.943-7.748v-8.301l-10.993 12.175 4.050 3.874z"></path>
            <path fill="#fbfbfb" style="fill: var(--color2, #fbfbfb)"
                d="M23.748 26.010v4.981l6.364-7.194v-4.981l-6.364 7.194z"></path>
            <path fill="#fbfbfb" style="fill: var(--color2, #fbfbfb)"
                d="M11.598 26.010l-6.364-7.194v4.981l6.364 7.194v-4.981z"></path>
        </symbol>
        <symbol id="icon-add-transaction" viewBox="0 0 319 32">
            <path
                d="M18.759 24.467h-12.16l-2.24 6.2h-3.84l10.080-27.72h4.2l10.040 27.72h-3.84l-2.24-6.2zM17.719 21.507l-5.040-14.080-5.040 14.080h10.080zM27.872 19.627c0-2.24 0.453-4.2 1.36-5.88 0.907-1.707 2.147-3.027 3.72-3.96 1.6-0.933 3.387-1.4 5.36-1.4 1.707 0 3.293 0.4 4.76 1.2 1.467 0.773 2.587 1.8 3.36 3.080v-11.6h3.68v29.6h-3.68v-4.12c-0.72 1.307-1.787 2.387-3.2 3.24-1.413 0.827-3.067 1.24-4.96 1.24-1.947 0-3.72-0.48-5.32-1.44-1.573-0.96-2.813-2.307-3.72-4.040s-1.36-3.707-1.36-5.92zM46.432 19.667c0-1.653-0.333-3.093-1-4.32s-1.573-2.16-2.72-2.8c-1.12-0.667-2.36-1-3.72-1s-2.6 0.32-3.72 0.96c-1.12 0.64-2.013 1.573-2.68 2.8s-1 2.667-1 4.32c0 1.68 0.333 3.147 1 4.4 0.667 1.227 1.56 2.173 2.68 2.84 1.12 0.64 2.36 0.96 3.72 0.96s2.6-0.32 3.72-0.96c1.147-0.667 2.053-1.613 2.72-2.84 0.667-1.253 1-2.707 1-4.36zM54.904 19.627c0-2.24 0.453-4.2 1.36-5.88 0.907-1.707 2.147-3.027 3.72-3.96 1.6-0.933 3.387-1.4 5.36-1.4 1.707 0 3.293 0.4 4.76 1.2 1.467 0.773 2.587 1.8 3.36 3.080v-11.6h3.68v29.6h-3.68v-4.12c-0.72 1.307-1.787 2.387-3.2 3.24-1.413 0.827-3.067 1.24-4.96 1.24-1.947 0-3.72-0.48-5.32-1.44-1.573-0.96-2.813-2.307-3.72-4.040s-1.36-3.707-1.36-5.92zM73.464 19.667c0-1.653-0.333-3.093-1-4.32s-1.573-2.16-2.72-2.8c-1.12-0.667-2.36-1-3.72-1s-2.6 0.32-3.72 0.96c-1.12 0.64-2.013 1.573-2.68 2.8s-1 2.667-1 4.32c0 1.68 0.333 3.147 1 4.4 0.667 1.227 1.56 2.173 2.68 2.84 1.12 0.64 2.36 0.96 3.72 0.96s2.6-0.32 3.72-0.96c1.147-0.667 2.053-1.613 2.72-2.84 0.667-1.253 1-2.707 1-4.36zM98.399 11.747v12.92c0 1.067 0.227 1.827 0.68 2.28 0.453 0.427 1.24 0.64 2.36 0.64h2.68v3.080h-3.28c-2.027 0-3.547-0.467-4.56-1.4s-1.52-2.467-1.52-4.6v-12.92h-2.84v-3h2.84v-5.52h3.64v5.52h5.72v3h-5.72zM112.169 12.307c0.64-1.253 1.547-2.227 2.72-2.92 1.2-0.693 2.653-1.040 4.36-1.040v3.76h-0.96c-4.080 0-6.12 2.213-6.12 6.64v11.92h-3.64v-21.92h3.64v3.56zM122.091 19.627c0-2.24 0.453-4.2 1.36-5.88 0.907-1.707 2.147-3.027 3.72-3.96 1.6-0.933 3.373-1.4 5.32-1.4 1.92 0 3.586 0.413 5 1.24s2.467 1.867 3.16 3.12v-4h3.68v21.92h-3.68v-4.080c-0.72 1.28-1.8 2.347-3.24 3.2-1.413 0.827-3.067 1.24-4.96 1.24-1.947 0-3.707-0.48-5.28-1.44s-2.813-2.307-3.72-4.040c-0.907-1.733-1.36-3.707-1.36-5.92zM140.651 19.667c0-1.653-0.333-3.093-1-4.32s-1.573-2.16-2.72-2.8c-1.12-0.667-2.36-1-3.72-1s-2.6 0.32-3.72 0.96-2.013 1.573-2.68 2.8c-0.667 1.227-1 2.667-1 4.32 0 1.68 0.333 3.147 1 4.4 0.667 1.227 1.56 2.173 2.68 2.84 1.12 0.64 2.36 0.96 3.72 0.96s2.6-0.32 3.72-0.96c1.147-0.667 2.053-1.613 2.72-2.84 0.667-1.253 1-2.707 1-4.36zM161.163 8.347c2.667 0 4.827 0.813 6.48 2.44 1.653 1.6 2.48 3.92 2.48 6.96v12.92h-3.6v-12.4c0-2.187-0.547-3.853-1.64-5-1.093-1.173-2.587-1.76-4.48-1.76-1.92 0-3.453 0.6-4.6 1.8-1.12 1.2-1.68 2.947-1.68 5.24v12.12h-3.64v-21.92h3.64v3.12c0.72-1.12 1.693-1.987 2.92-2.6 1.253-0.613 2.627-0.92 4.12-0.92zM183.828 31.027c-1.68 0-3.187-0.28-4.52-0.84-1.333-0.587-2.387-1.387-3.16-2.4-0.773-1.040-1.2-2.227-1.28-3.56h3.76c0.107 1.093 0.613 1.987 1.52 2.68 0.933 0.693 2.147 1.040 3.64 1.040 1.387 0 2.48-0.307 3.28-0.92s1.2-1.387 1.2-2.32c0-0.96-0.427-1.667-1.28-2.12-0.853-0.48-2.173-0.947-3.96-1.4-1.627-0.427-2.96-0.853-4-1.28-1.013-0.453-1.893-1.107-2.64-1.96-0.72-0.88-1.080-2.027-1.080-3.44 0-1.12 0.333-2.147 1-3.080s1.613-1.667 2.84-2.2c1.227-0.56 2.627-0.84 4.2-0.84 2.427 0 4.387 0.613 5.88 1.84s2.293 2.907 2.4 5.040h-3.64c-0.080-1.147-0.547-2.067-1.4-2.76-0.827-0.693-1.947-1.040-3.36-1.040-1.307 0-2.347 0.28-3.12 0.84s-1.16 1.293-1.16 2.2c0 0.72 0.227 1.32 0.68 1.8 0.48 0.453 1.067 0.827 1.76 1.12 0.72 0.267 1.707 0.573 2.96 0.92 1.573 0.427 2.853 0.853 3.84 1.28 0.987 0.4 1.827 1.013 2.52 1.84 0.72 0.827 1.093 1.907 1.12 3.24 0 1.2-0.333 2.28-1 3.24s-1.613 1.72-2.84 2.28c-1.2 0.533-2.587 0.8-4.16 0.8zM195.607 19.627c0-2.24 0.453-4.2 1.36-5.88 0.907-1.707 2.147-3.027 3.72-3.96 1.6-0.933 3.373-1.4 5.32-1.4 1.92 0 3.587 0.413 5 1.24s2.467 1.867 3.16 3.12v-4h3.68v21.92h-3.68v-4.080c-0.72 1.28-1.8 2.347-3.24 3.2-1.413 0.827-3.067 1.24-4.96 1.24-1.947 0-3.707-0.48-5.28-1.44s-2.813-2.307-3.72-4.040c-0.907-1.733-1.36-3.707-1.36-5.92zM214.167 19.667c0-1.653-0.333-3.093-1-4.32s-1.573-2.16-2.72-2.8c-1.12-0.667-2.36-1-3.72-1s-2.6 0.32-3.72 0.96c-1.12 0.64-2.013 1.573-2.68 2.8s-1 2.667-1 4.32c0 1.68 0.333 3.147 1 4.4 0.667 1.227 1.56 2.173 2.68 2.84 1.12 0.64 2.36 0.96 3.72 0.96s2.6-0.32 3.72-0.96c1.147-0.667 2.053-1.613 2.72-2.84 0.667-1.253 1-2.707 1-4.36zM222.637 19.667c0-2.267 0.453-4.24 1.36-5.92 0.907-1.707 2.16-3.027 3.76-3.96 1.627-0.933 3.48-1.4 5.56-1.4 2.693 0 4.907 0.653 6.64 1.96 1.76 1.307 2.92 3.12 3.48 5.44h-3.92c-0.373-1.333-1.107-2.387-2.2-3.16-1.067-0.773-2.4-1.16-4-1.16-2.080 0-3.76 0.72-5.040 2.16-1.28 1.413-1.92 3.427-1.92 6.040 0 2.64 0.64 4.68 1.92 6.12s2.96 2.16 5.040 2.16c1.6 0 2.933-0.373 4-1.12s1.8-1.813 2.2-3.2h3.92c-0.587 2.24-1.76 4.040-3.52 5.4-1.76 1.333-3.96 2-6.6 2-2.080 0-3.933-0.467-5.56-1.4-1.6-0.933-2.853-2.253-3.76-3.96s-1.36-3.707-1.36-6zM252.735 11.747v12.92c0 1.067 0.227 1.827 0.68 2.28 0.453 0.427 1.24 0.64 2.36 0.64h2.68v3.080h-3.28c-2.027 0-3.547-0.467-4.56-1.4s-1.52-2.467-1.52-4.6v-12.92h-2.84v-3h2.84v-5.52h3.64v5.52h5.72v3h-5.72zM264.745 5.187c-0.693 0-1.28-0.24-1.76-0.72s-0.72-1.067-0.72-1.76c0-0.693 0.24-1.28 0.72-1.76s1.067-0.72 1.76-0.72c0.667 0 1.227 0.24 1.68 0.72 0.48 0.48 0.72 1.067 0.72 1.76s-0.24 1.28-0.72 1.76c-0.453 0.48-1.013 0.72-1.68 0.72zM266.505 8.747v21.92h-3.64v-21.92h3.64zM282.269 31.027c-2.053 0-3.92-0.467-5.6-1.4-1.653-0.933-2.96-2.253-3.92-3.96-0.933-1.733-1.4-3.733-1.4-6 0-2.24 0.48-4.213 1.44-5.92 0.987-1.733 2.32-3.053 4-3.96 1.68-0.933 3.56-1.4 5.64-1.4s3.96 0.467 5.64 1.4c1.68 0.907 3 2.213 3.96 3.92 0.987 1.707 1.48 3.693 1.48 5.96s-0.507 4.267-1.52 6c-0.987 1.707-2.333 3.027-4.040 3.96s-3.6 1.4-5.68 1.4zM282.269 27.827c1.307 0 2.533-0.307 3.68-0.92s2.067-1.533 2.76-2.76c0.72-1.227 1.080-2.72 1.080-4.48s-0.347-3.253-1.040-4.48c-0.693-1.227-1.6-2.133-2.72-2.72-1.12-0.613-2.333-0.92-3.64-0.92-1.333 0-2.56 0.307-3.68 0.92-1.093 0.587-1.973 1.493-2.64 2.72s-1 2.72-1 4.48c0 1.787 0.32 3.293 0.96 4.52 0.667 1.227 1.547 2.147 2.64 2.76 1.093 0.587 2.293 0.88 3.6 0.88zM308.975 8.347c2.667 0 4.827 0.813 6.48 2.44 1.653 1.6 2.48 3.92 2.48 6.96v12.92h-3.6v-12.4c0-2.187-0.547-3.853-1.64-5-1.093-1.173-2.587-1.76-4.48-1.76-1.92 0-3.453 0.6-4.6 1.8-1.12 1.2-1.68 2.947-1.68 5.24v12.12h-3.64v-21.92h3.64v3.12c0.72-1.12 1.693-1.987 2.92-2.6 1.253-0.613 2.627-0.92 4.12-0.92z">
            </path>
        </symbol>
    </defs>
</svg>